<?xml version="1.0" encoding="UTF-8" standalone="no"?>
<svg
   xmlns:dc="http://purl.org/dc/elements/1.1/"
   xmlns:cc="http://creativecommons.org/ns#"
   xmlns:rdf="http://www.w3.org/1999/02/22-rdf-syntax-ns#"
   xmlns:svg="http://www.w3.org/2000/svg"
   xmlns="http://www.w3.org/2000/svg"
   xmlns:xlink="http://www.w3.org/1999/xlink"
   xmlns:sodipodi="http://sodipodi.sourceforge.net/DTD/sodipodi-0.dtd"
   xmlns:inkscape="http://www.inkscape.org/namespaces/inkscape"
   data-name="Layer 1"
   viewBox="0 0 48.000001 48.000001"
   version="1.1"
   id="svg10"
   sodipodi:docname="instagram.svg"
   width="48"
   height="48"
   style="fill:#ffffff"
   inkscape:version="0.92.4 5da689c313, 2019-01-14">
  <metadata
     id="metadata16">
    <rdf:RDF>
      <cc:Work
         rdf:about="">
        <dc:format>image/svg+xml</dc:format>
        <dc:type
           rdf:resource="http://purl.org/dc/dcmitype/StillImage" />
        <dc:title>Glyph</dc:title>
      </cc:Work>
    </rdf:RDF>
  </metadata>
  <defs
     id="defs14">
    <linearGradient
       inkscape:collect="always"
       id="linearGradient5793">
      <stop
         style="stop-color:#ffdc80;stop-opacity:1"
         offset="0"
         id="stop5789" />
      <stop
         id="stop26475"
         offset="0.10674305"
         style="stop-color:#fcaf45;stop-opacity:0.83999997" />
      <stop
         id="stop26473"
         offset="0.2637426"
         style="stop-color:#f77737;stop-opacity:1" />
      <stop
         id="stop26471"
         offset="0.32041103"
         style="stop-color:#f56040;stop-opacity:1" />
      <stop
         id="stop26469"
         offset="0.47590917"
         style="stop-color:#fd1d1d;stop-opacity:0.92000002" />
      <stop
         id="stop26467"
         offset="0.61894351"
         style="stop-color:#e1306c;stop-opacity:1" />
      <stop
         id="stop26461"
         offset="0.71853441"
         style="stop-color:#c13584;stop-opacity:1" />
      <stop
         style="stop-color:#833ab4;stop-opacity:1"
         offset="0.79428869"
         id="stop26465" />
      <stop
         style="stop-color:#5851db;stop-opacity:1"
         offset="0.95223808"
         id="stop26463" />
      <stop
         style="stop-color:#405de6;stop-opacity:1"
         offset="1"
         id="stop5791" />
    </linearGradient>
    <linearGradient
       inkscape:collect="always"
       xlink:href="#linearGradient5793"
       id="linearGradient26445"
       x1="-2.4887979"
       y1="36.725185"
       x2="24.60354"
       y2="-2.5690405"
       gradientUnits="userSpaceOnUse" />
  </defs>
  <sodipodi:namedview
     pagecolor="#ffffff"
     bordercolor="#666666"
     borderopacity="1"
     objecttolerance="10"
     gridtolerance="10"
     guidetolerance="10"
     inkscape:pageopacity="0"
     inkscape:pageshadow="2"
     inkscape:window-width="958"
     inkscape:window-height="1022"
     id="namedview12"
     showgrid="false"
     inkscape:snap-bbox="true"
     inkscape:snap-bbox-midpoints="true"
     fit-margin-top="0"
     fit-margin-left="0"
     fit-margin-right="0"
     fit-margin-bottom="0"
     inkscape:zoom="5.6453722"
     inkscape:cx="24.687154"
     inkscape:cy="30.732981"
     inkscape:window-x="0"
     inkscape:window-y="29"
     inkscape:window-maximized="0"
     inkscape:current-layer="g30"
     inkscape:snap-smooth-nodes="true" />
  <title
     id="title2">Glyph</title>
  <g
     id="g30"
     transform="translate(12.00812,6.438715)">
    <circle
       r="24"
       cy="17.561285"
       cx="11.99188"
       id="path18"
       style="fill:url(#linearGradient26445);stroke-width:1.22044766;fill-opacity:1" />
    <g
       transform="matrix(0.81190798,0,0,0.81190798,0,5.5694046)"
       id="g23">
      <path
         inkscape:connector-curvature="0"
         d="m 14.77,7.18 a 7.59,7.59 0 1 0 7.59,7.59 7.59,7.59 0 0 0 -7.59,-7.59 z m 0,12.52 a 4.93,4.93 0 1 1 4.93,-4.93 4.93,4.93 0 0 1 -4.93,4.93 z"
         id="path4"
         style="fill:#ffffff" />
      <circle
         cx="22.66"
         cy="6.9000001"
         r="1.77"
         id="circle6"
         style="fill:#ffffff" />
      <path
         inkscape:connector-curvature="0"
         d="M 28.78,5.1 A 7.56,7.56 0 0 0 24.46,0.78 10.85,10.85 0 0 0 20.87,0.09 C 19.29,0.02 18.79,0 14.78,0 10.77,0 10.26,0 8.69,0.09 A 10.85,10.85 0 0 0 5.1,0.78 7.56,7.56 0 0 0 0.78,5.1 10.85,10.85 0 0 0 0.09,8.69 C 0.02,10.27 0,10.77 0,14.78 c 0,4.01 0,4.52 0.09,6.09 a 10.85,10.85 0 0 0 0.69,3.59 7.56,7.56 0 0 0 4.32,4.32 10.85,10.85 0 0 0 3.59,0.74 c 1.58,0.07 2.08,0.09 6.09,0.09 4.01,0 4.52,0 6.09,-0.09 a 10.85,10.85 0 0 0 3.59,-0.69 7.56,7.56 0 0 0 4.32,-4.32 10.85,10.85 0 0 0 0.69,-3.59 c 0.07,-1.58 0.09,-2.08 0.09,-6.09 0,-4.01 0,-4.52 -0.09,-6.09 A 10.85,10.85 0 0 0 28.78,5.1 Z m -2,15.65 a 8.18,8.18 0 0 1 -0.51,2.77 4.9,4.9 0 0 1 -2.81,2.81 8.18,8.18 0 0 1 -2.74,0.51 c -1.56,0.07 -2,0.09 -6,0.09 -4,0 -4.41,0 -6,-0.09 A 8.18,8.18 0 0 1 5.98,26.33 4.89,4.89 0 0 1 3.16,23.52 8.18,8.18 0 0 1 2.65,20.78 c -0.07,-1.56 -0.09,-2 -0.09,-6 0,-4 0,-4.41 0.09,-6 A 8.18,8.18 0 0 1 3.16,6.01 4.89,4.89 0 0 1 5.98,3.2 8.18,8.18 0 0 1 8.72,2.69 c 1.56,-0.07 2,-0.09 6,-0.09 4,0 4.41,0 6,0.09 a 8.18,8.18 0 0 1 2.74,0.51 4.9,4.9 0 0 1 2.81,2.81 8.18,8.18 0 0 1 0.51,2.74 c 0.07,1.56 0.09,2 0.09,6 0,4 0,4.43 -0.07,6 z"
         id="path8"
         style="fill:#ffffff" />
    </g>
  </g>
</svg>
