<?xml version="1.0" encoding="UTF-8" standalone="no"?>
<!-- Created with Inkscape (http://www.inkscape.org/) -->

<svg
   xmlns:dc="http://purl.org/dc/elements/1.1/"
   xmlns:cc="http://creativecommons.org/ns#"
   xmlns:rdf="http://www.w3.org/1999/02/22-rdf-syntax-ns#"
   xmlns:svg="http://www.w3.org/2000/svg"
   xmlns="http://www.w3.org/2000/svg"
   xmlns:sodipodi="http://sodipodi.sourceforge.net/DTD/sodipodi-0.dtd"
   xmlns:inkscape="http://www.inkscape.org/namespaces/inkscape"
   version="1.1"
   id="svg3767"
   width="194.49716"
   height="209.85486"
   viewBox="0 0 194.49716 209.85485"
   sodipodi:docname="logo.svg"
   inkscape:version="0.92.4 5da689c313, 2019-01-14"
   inkscape:export-filename="/home/ghtpestell/Pictures/georgepestell.png"
   inkscape:export-xdpi="96"
   inkscape:export-ydpi="96">
  <metadata
     id="metadata3773">
    <rdf:RDF>
      <cc:Work
         rdf:about="">
        <dc:format>image/svg+xml</dc:format>
        <dc:type
           rdf:resource="http://purl.org/dc/dcmitype/StillImage" />
        <dc:title />
      </cc:Work>
    </rdf:RDF>
  </metadata>
  <defs
     id="defs3771">
    <inkscape:path-effect
       effect="powerstroke"
       id="path-effect4600"
       is_visible="true"
       offset_points="0.11560744,5.9320728 | 1.1598442,5.7313837 | 2,5.2505732"
       sort_points="true"
       interpolator_type="CubicBezierFit"
       interpolator_beta="0.2"
       start_linecap_type="round"
       linejoin_type="round"
       miter_limit="4"
       end_linecap_type="round" />
    <inkscape:path-effect
       effect="powerstroke"
       id="path-effect4590"
       is_visible="true"
       offset_points="0.038766954,-21.464142 | 0.98403311,-21.253014 | 1.383759,-15.231462 | 1.65938,-13.381702 | 1.9285048,-12.146042 | 2.8243652,-10.094917"
       sort_points="true"
       interpolator_type="CubicBezierFit"
       interpolator_beta="0.22535211"
       start_linecap_type="round"
       linejoin_type="extrp_arc"
       miter_limit="4"
       end_linecap_type="round" />
  </defs>
  <sodipodi:namedview
     pagecolor="#ffffff"
     bordercolor="#666666"
     borderopacity="1"
     objecttolerance="10"
     gridtolerance="10"
     guidetolerance="10"
     inkscape:pageopacity="0"
     inkscape:pageshadow="2"
     inkscape:window-width="1022"
     inkscape:window-height="416"
     id="namedview3769"
     showgrid="false"
     inkscape:snap-bbox="true"
     inkscape:snap-bbox-edge-midpoints="true"
     inkscape:bbox-paths="true"
     inkscape:zoom="1.2170661"
     inkscape:cx="77.519981"
     inkscape:cy="104.34657"
     inkscape:window-x="879"
     inkscape:window-y="375"
     inkscape:window-maximized="0"
     inkscape:current-layer="g4661"
     inkscape:snap-smooth-nodes="true"
     showguides="true"
     inkscape:snap-page="false"
     inkscape:snap-object-midpoints="true"
     showborder="true"
     fit-margin-top="0"
     fit-margin-left="0"
     fit-margin-right="0"
     fit-margin-bottom="0" />
  <g
     id="g4771"
     style="fill:#bec8b7"
     transform="translate(-22.941841,-10.351876)">
    <g
       id="g4776"
       inkscape:export-xdpi="96"
       inkscape:export-ydpi="96"
       style="fill:#bec8b7">
      <g
         id="g4787"
         inkscape:export-xdpi="96"
         inkscape:export-ydpi="96">
        <g
           id="g4792"
           inkscape:export-xdpi="96"
           inkscape:export-ydpi="96">
          <g
             id="g4797"
             inkscape:export-xdpi="96"
             inkscape:export-ydpi="96">
            <rect
               y="-14.7304"
               x="-7.809588"
               height="256"
               width="256"
               id="rect4756"
               style="fill:none;stroke:none;stroke-width:22.34814644;stroke-linecap:butt;stroke-linejoin:miter;stroke-miterlimit:4;stroke-dasharray:none;stroke-opacity:1;paint-order:stroke fill markers"
               inkscape:export-xdpi="96"
               inkscape:export-ydpi="96" />
            <g
               style="fill:#b7caa3;fill-opacity:1"
               transform="matrix(1.0329725,0,0,1.0952286,-2.5194839,-23.478925)"
               inkscape:export-ydpi="96"
               inkscape:export-xdpi="96"
               id="g4661">
              <path
                 inkscape:export-ydpi="96"
                 inkscape:export-xdpi="96"
                 inkscape:path-effect="#path-effect4590"
                 inkscape:original-d="M 191.33588,87.787394 C 163.64806,32.420671 49.497854,41.026331 45.844348,119.91406 c -5.228426,112.89393 166.735502,112.2565 154.416302,29.20523 -2.25257,-15.18594 -70.09956,-8.61672 -70.09956,-8.61672"
                 style="fill:#8e8e8e;fill-opacity:1;fill-rule:nonzero;stroke:none;stroke-width:1px;stroke-linecap:butt;stroke-linejoin:miter;stroke-opacity:1"
                 d="m 172.13839,97.387687 c -1.77981,-3.559039 -4.36165,-7.099009 -8.05439,-10.387241 -3.71375,-3.306942 -8.52153,-6.324525 -14.4844,-8.664328 -10.74941,-4.218023 -23.83586,-5.651176 -36.69812,-3.64104 -13.907694,2.173518 -24.738629,7.867872 -31.951189,14.675245 -4.505852,4.252725 -7.504383,8.804633 -9.522925,13.159167 -3.315008,7.15136 -3.959007,13.94366 -4.162706,15.62863 -0.107573,0.88983 -0.201141,1.8013 -0.278974,2.73505 -0.793955,11.33725 0.344162,20.86885 2.773923,28.90882 2.447128,8.09744 6.380191,15.25517 11.729329,21.43323 5.750869,6.64204 13.145811,12.13945 21.742502,16.06565 4.44067,2.0281 12.70414,5.13122 23.72805,6.43772 8.13917,0.96462 16.92465,0.83864 25.50346,-0.83456 8.17127,-1.59371 15.19465,-4.40628 20.74538,-8.03025 6.4981,-4.2425 10.30023,-9.12858 12.49957,-13.63233 1.43462,-2.93775 2.14977,-5.63222 2.52968,-7.63533 0.73271,-3.86321 0.82916,-8.10742 0.20876,-12.73438 0.27055,1.37194 0.89683,2.37262 1.42188,2.93911 1.132,1.22134 0.22234,-0.056 0.6635,0.44677 -0.41464,-0.47257 -2.23846,-1.27837 -4.66527,-1.94642 -3.42582,-0.94306 -7.57623,-1.55324 -11.29821,-1.9468 -3.70277,-0.39153 -7.34941,-0.60865 -10.35815,-0.73334 -8.13314,-0.33707 -15.29108,-0.16757 -20.15513,0.0454 -2.79427,0.12231 -5.53214,0.28815 -8.0935,0.47534 -2.51246,0.18361 -4.9039,0.40615 -4.82749,0.39875 a 10.094917,10.094917 90 0 1 -1.94576,-20.09586 c 0.46065,-0.0446 2.38063,-0.21859 5.28019,-0.43649 2.70526,-0.20329 5.59374,-0.3954 8.53268,-0.57159 4.47544,-0.26831 13.30375,-0.76742 21.52114,-0.84521 3.2589,-0.0308 7.36877,-0.01 11.65403,0.19529 4.16079,0.19915 9.57829,0.62034 14.67188,1.62488 3.38355,0.66729 7.8979,1.82678 11.8238,4.09889 1.7934,1.03793 3.87322,2.53854 5.66421,4.70864 1.71575,2.07893 3.17971,4.79985 3.73882,8.13779 1.07552,6.80628 1.18379,13.63541 0.10569,20.3419 -0.55326,3.44164 -1.63122,8.29786 -3.99238,13.72899 -3.72299,8.5636 -10.08925,17.27991 -20.20655,24.62636 -8.45569,6.1399 -18.56296,10.60359 -29.56971,13.31721 -11.55002,2.84756 -23.21494,3.5613 -33.94842,2.87236 -14.64731,-0.94016 -25.898076,-4.36045 -32.332027,-6.58397 -12.176948,-4.20826 -24.135923,-10.45827 -34.62342,-19.33773 -9.852527,-8.34185 -18.378098,-18.99437 -24.300607,-32.1574 -5.914714,-13.14571 -9.014998,-28.33039 -8.504527,-45.2396 0.03879,-1.58459 0.118214,-3.15653 0.238455,-4.71505 0.192717,-2.49792 1.182918,-15.371863 7.649689,-29.522781 4.050195,-8.862843 10.09316,-18.044087 18.908792,-26.412318 14.011696,-13.300586 33.01697,-22.551137 54.753075,-25.969274 19.90799,-3.130657 40.74211,-1.106108 59.01897,6.059864 10.33065,4.050434 19.58333,9.63867 27.36037,16.563295 7.81746,6.960631 13.72035,14.88843 17.90101,23.248405 a 21.464142,21.464142 90 0 1 -38.39498,19.200586 z"
                 id="path3783"
                 inkscape:connector-curvature="0"
                 sodipodi:nodetypes="cssc" />
            </g>
          </g>
        </g>
      </g>
    </g>
  </g>
</svg>
